<svg xmlns="http://www.w3.org/2000/svg" viewBox="0 0 491 321" width="491" height="321">
	<style>
		tspan { white-space:pre }
		.shp0 { fill: #000000 } 
	</style>
	<g id="Layer">
		<g id="Layer">
			<path id="Layer" fill-rule="evenodd" class="shp0" d="M320 76C320 117.17 286.51 150.67 245.33 150.67C204.16 150.67 170.67 117.17 170.67 76C170.67 34.83 204.16 1.33 245.33 1.33C286.51 1.33 320 34.83 320 76ZM298.67 76C298.67 46.6 274.73 22.67 245.33 22.67C215.94 22.67 192 46.6 192 76C192 105.4 215.94 129.33 245.33 129.33C274.73 129.33 298.67 105.4 298.67 76Z" />
		</g>
	</g>
	<g id="Layer">
		<g id="Layer">
			<path id="Layer" fill-rule="evenodd" class="shp0" d="M448 140C448 169.4 424.06 193.33 394.67 193.33C365.27 193.33 341.33 169.4 341.33 140C341.33 110.6 365.27 86.67 394.67 86.67C424.06 86.67 448 110.6 448 140ZM426.67 140C426.67 122.36 412.31 108 394.67 108C377.02 108 362.67 122.36 362.67 140C362.67 157.64 377.02 172 394.67 172C412.31 172 426.67 157.64 426.67 140Z" />
		</g>
	</g>
	<g id="Layer">
		<g id="Layer">
			<path id="Layer" fill-rule="evenodd" class="shp0" d="M150.85 140C150.85 169.4 126.91 193.33 97.52 193.33C68.12 193.33 44.18 169.4 44.18 140C44.18 110.6 68.1 86.67 97.52 86.67C126.93 86.67 150.85 110.6 150.85 140ZM129.51 140C129.51 122.36 115.16 108 97.52 108C79.87 108 65.52 122.36 65.52 140C65.52 157.64 79.87 172 97.52 172C115.16 172 129.51 157.64 129.51 140Z" />
		</g>
	</g>
	<g id="Layer">
		<g id="Layer">
			<path id="Layer" class="shp0" d="M245.33 172C168.87 172 106.67 234.21 106.67 310.67C106.67 316.56 111.44 321.33 117.33 321.33C123.22 321.33 128 316.56 128 310.67C128 245.96 180.63 193.33 245.33 193.33C310.04 193.33 362.67 245.96 362.67 310.67C362.67 316.55 367.44 321.33 373.33 321.33C379.22 321.33 384 316.55 384 310.67C384 234.21 321.79 172 245.33 172Z" />
		</g>
	</g>
	<g id="Layer">
		<g id="Layer">
			<path id="Layer" class="shp0" d="M394.67 214.67C377.11 214.67 359.91 219.47 344.94 228.53C339.93 231.61 338.3 238.15 341.35 243.19C344.45 248.23 350.98 249.82 356.01 246.77C367.64 239.71 380.99 236 394.67 236C435.84 236 469.33 269.49 469.33 310.67C469.33 316.56 474.11 321.33 480 321.33C485.89 321.33 490.67 316.56 490.67 310.67C490.67 257.74 447.6 214.67 394.67 214.67Z" />
		</g>
	</g>
	<g id="Layer">
		<g id="Layer">
			<path id="Layer" class="shp0" d="M145.71 228.51C130.75 219.47 113.56 214.67 96 214.67C43.07 214.67 0 257.74 0 310.67C0 316.55 4.78 321.33 10.67 321.33C16.55 321.33 21.33 316.55 21.33 310.67C21.33 269.49 54.83 236 96 236C109.67 236 123.03 239.71 134.63 246.75C139.65 249.8 146.22 248.2 149.29 243.17C152.36 238.13 150.74 231.58 145.71 228.51Z" />
		</g>
	</g>
	<g id="Layer">
	</g>
	<g id="Layer">
	</g>
	<g id="Layer">
	</g>
	<g id="Layer">
	</g>
	<g id="Layer">
	</g>
	<g id="Layer">
	</g>
	<g id="Layer">
	</g>
	<g id="Layer">
	</g>
	<g id="Layer">
	</g>
	<g id="Layer">
	</g>
	<g id="Layer">
	</g>
	<g id="Layer">
	</g>
	<g id="Layer">
	</g>
	<g id="Layer">
	</g>
	<g id="Layer">
	</g>
</svg>